:SAMPLES-PER-SECOND 30
:FULLY-SPECIFIED
:DEGREES
140
root  -70.7105 40.8779 -1.24543 -5.36875 -85.1005 9.05194
RightUpLeg  -12.0778 -5.54336 -3.13544
RightLeg  2.70713 20.1475 -0.842949
RightFoot  5.63612 -0.576573 4.11987
RightToes  5.23868e-010 0 -3.6325e-017
Spine  16.6129 -0.290442 6.14768
Spine1  8.18297 2.6551 -8.34768
HEad  -24.3948 -5.21226 -0.374182
LeftShoulder1  1.26074 -4.15268 -9.05628
LeftArm  -34.5973 -75.8307 -20.9624
LeftForeArm  -27.2158 -11.3943 -1.86137
LeftHand  -0.250849 9.24896 -5.72221
RightShoulder  0.244898 0.952868 -3.39553
RightArm  -45.6084 72.3355 8.04718
RightForeArm  -40.0993 -2.92736 -1.57046
RightHand  0.186678 0.0028014 4.03637
LeftUpLeg  -13.7913 1.22636 -1.19278
LeftLeg  8.4241 -10.4273 -0.652914
LeftFoot  4.81893 -0.790646 5.3587
LeftToes  -4.9204e-010 1.02043e-011 -1.81609e-011
141
root  -70.7979 40.9209 -1.41731 -4.64259 -84.8306 8.04141
RightUpLeg  -11.5756 -5.41596 -2.89132
RightLeg  2.65503 19.6665 -0.807343
RightFoot  5.78006 -0.527973 3.76835
RightToes  5.23868e-010 0 -3.6325e-017
Spine  16.8531 -0.393076 6.33654
Spine1  8.10422 2.65569 -8.60308
HEad  -23.1193 -4.75026 -0.901239
LeftShoulder1  1.30032 -4.22638 -9.45679
LeftArm  -33.7925 -74.3617 -22.0268
LeftForeArm  -26.3666 -13.2785 -2.22835
LeftHand  -0.217713 8.62081 -5.76151
RightShoulder  0.27893 1.08356 -2.72399
RightArm  -42.1414 70.9856 10.602
RightForeArm  -40.6038 -0.304438 -0.857048
RightHand  0.226438 0.502858 4.43078
LeftUpLeg  -13.3235 1.70115 -0.864592
LeftLeg  8.225 -11.3087 -0.781559
LeftFoot  5.14523 -0.720703 4.75542
LeftToes  -4.9204e-010 1.02043e-011 -1.81609e-011
142
root  -70.8672 40.9416 -1.6077 -6.15166 -84.4742 9.34328
RightUpLeg  -11.4131 -5.36837 -2.74302
RightLeg  3.10913 18.991 -0.727618
RightFoot  5.69122 -0.422795 3.082
RightToes  5.23868e-010 0 -3.6325e-017
Spine  17.151 -0.412836 5.82977
Spine1  7.76531 2.39941 -8.05983
HEad  -21.7539 -3.4351 -1.96394
LeftShoulder1  1.29389 -4.02981 -9.8456
LeftArm  -32.3457 -72.8643 -23.113
LeftForeArm  -26.2328 -14.8861 -3.04835
LeftHand  -0.178367 8.11126 -5.38114
RightShoulder  0.3101 1.33214 -2.33453
RightArm  -38.7246 69.4737 13.4204
RightForeArm  -41.3864 2.61529 -0.20424
RightHand  0.24063 0.798417 4.44583
LeftUpLeg  -12.9443 1.98698 -0.613344
LeftLeg  8.02947 -12.1676 -1.02412
LeftFoot  5.33864 -0.57885 3.72695
LeftToes  -4.9204e-010 1.02043e-011 -1.81609e-011
143
root  -70.9128 40.9656 -1.8258 -7.1432 -83.925 10.0454
RightUpLeg  -11.4149 -5.59793 -2.70313
RightLeg  4.03748 18.5399 -0.168878
RightFoot  5.66261 -0.270182 2.06817
RightToes  5.23868e-010 0 -3.6325e-017
Spine  16.8029 -0.460622 5.7539
Spine1  8.58699 2.37865 -8.05506
HEad  -20.7103 -3.22454 -1.8456
LeftShoulder1  1.26795 -4.00218 -9.53178
LeftArm  -32.1891 -71.185 -24.9729
LeftForeArm  -24.5101 -17.2267 -3.54801
LeftHand  -0.172148 7.80124 -5.81343
RightShoulder  0.310641 1.29346 -2.26156
RightArm  -36.223 67.2393 16.1786
RightForeArm  -41.7729 6.47846 0.145634
RightHand  0.265159 1.1026 4.65311
LeftUpLeg  -12.4797 2.21041 -0.418408
LeftLeg  7.67915 -13.0899 -1.10181
LeftFoot  5.68259 -0.489565 3.03884
LeftToes  -4.9204e-010 1.02043e-011 -1.81609e-011
144
root  -70.9205 40.9609 -2.06098 -6.36094 -83.1088 9.14426
RightUpLeg  -11.5084 -5.24536 -2.37398
RightLeg  4.68517 17.3911 -0.273422
RightFoot  5.61123 -0.172825 1.42495
RightToes  5.23868e-010 0 -3.6325e-017
Spine  16.9406 -0.503091 5.91852
Spine1  8.46365 2.34144 -8.04729
HEad  -19.0033 -2.6572 -2.3935
LeftShoulder1  1.30628 -4.20651 -9.59199
LeftArm  -31.4836 -69.3574 -26.4667
LeftForeArm  -23.7193 -20.2246 -4.88754
LeftHand  -0.169011 7.9102 -5.41665
RightShoulder  0.331433 1.11461 -1.45816
RightArm  -34.4884 64.4877 18.78
RightForeArm  -41.2973 11.2679 0.640717
RightHand  0.261215 1.36738 4.36653
LeftUpLeg  -12.6746 2.4821 -0.0849766
LeftLeg  8.07967 -14.0877 -1.52001
LeftFoot  5.86868 -0.424634 2.56989
LeftToes  -4.9204e-010 1.02043e-011 -1.81609e-011
145
root  -70.9373 40.9428 -2.2696 -7.75652 -82.2139 10.4549
RightUpLeg  -11.3854 -5.2908 -2.48136
RightLeg  4.96686 16.4368 -0.319568
RightFoot  4.79298 -0.259194 2.05367
RightToes  5.23868e-010 0 -3.6325e-017
Spine  16.6783 -0.597584 5.68327
Spine1  8.78266 2.09687 -7.62
HEad  -17.272 -1.70069 -3.34197
LeftShoulder1  1.34238 -4.46923 -9.48027
LeftArm  -31.4571 -65.9098 -28.976
LeftForeArm  -21.3833 -24.6672 -6.32173
LeftHand  -0.142867 7.43962 -5.34112
RightShoulder  0.346855 0.974978 -0.814176
RightArm  -36.0342 61.6665 20.6562
RightForeArm  -37.8675 16.4018 2.19696
RightHand  0.297515 1.58985 4.81644
LeftUpLeg  -12.7831 2.44565 -0.111499
LeftLeg  8.28071 -14.9536 -1.77042
LeftFoot  6.03059 -0.36457 2.14601
LeftToes  -4.9204e-010 1.02043e-011 -1.81609e-011
146
root  -70.9546 40.9303 -2.51684 -8.52585 -81.3037 10.8711
RightUpLeg  -11.2252 -5.44867 -2.47454
RightLeg  5.72697 15.559 -0.0706727
RightFoot  4.23666 -0.143588 1.26255
RightToes  5.23868e-010 0 -3.6325e-017
Spine  16.5768 -0.632829 5.26902
Spine1  9.23192 1.82225 -6.86617
HEad  -15.3563 -0.906754 -4.1287
LeftShoulder1  1.34671 -4.09712 -10.4472
LeftArm  -29.4062 -63.1898 -30.9389
LeftForeArm  -20.461 -29.1363 -7.33727
LeftHand  -0.101502 6.69288 -5.23629
RightShoulder  0.374506 0.898664 0.08765
RightArm  -38.9301 58.5428 22.0552
RightForeArm  -33.1464 22.1883 5.49463
RightHand  0.254215 1.64054 4.05737
LeftUpLeg  -12.5242 2.48826 0.00116153
LeftLeg  8.30944 -15.9134 -1.94396
LeftFoot  6.16326 -0.281292 1.58409
LeftToes  -4.9204e-010 1.02043e-011 -1.81609e-011
147
root  -70.9471 40.9027 -2.78407 -9.98817 -80.4564 12.1609
RightUpLeg  -11.3649 -5.46113 -2.52448
RightLeg  6.6189 14.725 0.0244403
RightFoot  3.44248 -0.108916 1.01995
RightToes  5.23868e-010 0 -3.6325e-017
Spine  16.2749 -0.509573 4.9387
Spine1  9.70796 1.8065 -6.43903
HEad  -13.9947 0.209215 -4.73096
LeftShoulder1  1.37328 -4.21824 -10.5236
LeftArm  -27.8086 -59.2313 -33.6033
LeftForeArm  -19.1254 -34.4182 -8.70554
LeftHand  -0.0844456 6.30527 -5.26968
RightShoulder  0.404628 0.572937 1.66322
RightArm  -37.6163 55.4979 23.3438
RightForeArm  -31.7264 28.3143 7.66626
RightHand  0.204373 1.6661 3.22657
LeftUpLeg  -12.3383 2.40497 -0.000671783
LeftLeg  8.00047 -16.7709 -1.93949
LeftFoot  6.30497 -0.147982 0.706388
LeftToes  -4.9204e-010 1.02043e-011 -1.81609e-011
